<?xml version="1.0" encoding="utf-8"?>
<!-- Generator: Adobe Illustrator 26.0.1, SVG Export Plug-In . SVG Version: 6.00 Build 0)  -->
<svg version="1.1" id="Слой_1" xmlns="http://www.w3.org/2000/svg" xmlns:xlink="http://www.w3.org/1999/xlink" x="0px" y="0px"
	 viewBox="0 0 24 24" style="enable-background:new 0 0 24 24;" xml:space="preserve">
<style type="text/css">
	.st0{fill:#FFFFFF;}
</style>
<path class="st0" d="M8,21v-2h2v-2H4c-0.5,0-1-0.2-1.4-0.6S2,15.6,2,15V5c0-0.5,0.2-1,0.6-1.4S3.5,3,4,3h16c0.6,0,1,0.2,1.4,0.6
	S22,4.4,22,5v10c0,0.6-0.2,1-0.6,1.4S20.6,17,20,17h-6v2h2v2H8z M4,15h16V5H4V15z M4,15V5V15z"/>
</svg>
