<?xml version="1.0" encoding="utf-8"?>
<!-- Generator: Adobe Illustrator 26.0.1, SVG Export Plug-In . SVG Version: 6.00 Build 0)  -->
<svg version="1.1" id="Слой_1" xmlns="http://www.w3.org/2000/svg" xmlns:xlink="http://www.w3.org/1999/xlink" x="0px" y="0px"
	 viewBox="0 0 24 24" style="enable-background:new 0 0 24 24;" xml:space="preserve">
<style type="text/css">
	.st0{fill:#FFFFFF;}
</style>
<path class="st0" d="M8.5,17.5h7v-1h-7V17.5z M8.5,13.5h7v-1h-7V13.5z M6.6,21c-0.5,0-0.8-0.2-1.2-0.5C5.2,20.2,5,19.8,5,19.4V4.6
	c0-0.5,0.2-0.8,0.5-1.2S6.2,3,6.6,3h7.9L19,7.5v11.9c0,0.5-0.2,0.8-0.5,1.2c-0.3,0.3-0.7,0.5-1.2,0.5C17.4,21,6.6,21,6.6,21z M14,8
	V4H6.6C6.5,4,6.3,4.1,6.2,4.2C6.1,4.3,6,4.5,6,4.6v14.8c0,0.2,0.1,0.3,0.2,0.4C6.3,19.9,6.5,20,6.6,20h10.8c0.2,0,0.3-0.1,0.4-0.2
	c0.1-0.1,0.2-0.3,0.2-0.4V8H14z M6,4v4V4v16V4z"/>
</svg>
