<?xml version="1.0" encoding="utf-8"?>
<!-- Generator: Adobe Illustrator 26.0.1, SVG Export Plug-In . SVG Version: 6.00 Build 0)  -->
<svg version="1.1" id="Слой_1" xmlns="http://www.w3.org/2000/svg" xmlns:xlink="http://www.w3.org/1999/xlink" x="0px" y="0px"
	 viewBox="0 0 24 24" style="enable-background:new 0 0 24 24;" xml:space="preserve">
<style type="text/css">
	.st0{fill:#FFFFFF;}
</style>
<path class="st0" d="M4,17h16v-6H4V17z M17,15.5c0.4,0,0.8-0.1,1.1-0.4c0.3-0.3,0.4-0.6,0.4-1.1c0-0.4-0.1-0.8-0.4-1.1
	c-0.3-0.3-0.6-0.4-1.1-0.4c-0.4,0-0.8,0.1-1.1,0.4c-0.3,0.3-0.4,0.6-0.4,1.1c0,0.4,0.1,0.8,0.4,1.1C16.2,15.4,16.6,15.5,17,15.5z
	 M22,9h-2.8l-2-2H6.8l-2,2H2l3.4-3.4c0.2-0.2,0.4-0.3,0.6-0.4S6.6,5,6.8,5h10.4c0.3,0,0.5,0.1,0.8,0.2s0.5,0.2,0.6,0.4L22,9z M4,19
	c-0.5,0-1-0.2-1.4-0.6S2,17.5,2,17V9h20v8c0,0.5-0.2,1-0.6,1.4S20.6,19,20,19H4z"/>
</svg>
