<?xml version="1.0" encoding="utf-8"?>
<!-- Generator: Adobe Illustrator 26.0.1, SVG Export Plug-In . SVG Version: 6.00 Build 0)  -->
<svg version="1.1" id="Слой_1" xmlns="http://www.w3.org/2000/svg" xmlns:xlink="http://www.w3.org/1999/xlink" x="0px" y="0px"
	 viewBox="0 0 24 24" style="enable-background:new 0 0 24 24;" xml:space="preserve">
<style type="text/css">
	.st0{fill:#FFFFFF;}
</style>
<path class="st0" d="M12,15c0.8,0,1.5-0.3,2.1-0.9c0.6-0.6,0.9-1.3,0.9-2.1s-0.3-1.5-0.9-2.1S12.8,9,12,9s-1.5,0.3-2.1,0.9
	C9.3,10.5,9,11.2,9,12s0.3,1.5,0.9,2.1C10.5,14.7,11.2,15,12,15z M12,17c-1.4,0-2.6-0.5-3.5-1.5c-1-1-1.5-2.2-1.5-3.5
	s0.5-2.6,1.5-3.5S10.6,7,12,7s2.6,0.5,3.5,1.5S17,10.6,17,12s-0.5,2.6-1.5,3.5C14.6,16.5,13.4,17,12,17z M2,13
	c-0.3,0-0.5-0.1-0.7-0.3S1,12.3,1,12s0.1-0.5,0.3-0.7S1.7,11,2,11h2c0.3,0,0.5,0.1,0.7,0.3S5,11.7,5,12s-0.1,0.5-0.3,0.7
	S4.3,13,4,13H2z M20,13c-0.3,0-0.5-0.1-0.7-0.3S19,12.3,19,12s0.1-0.5,0.3-0.7S19.7,11,20,11h2c0.3,0,0.5,0.1,0.7,0.3
	c0.2,0.2,0.3,0.4,0.3,0.7s-0.1,0.5-0.3,0.7C22.5,12.9,22.3,13,22,13H20z M12,5c-0.3,0-0.5-0.1-0.7-0.3S11,4.3,11,4V2
	c0-0.3,0.1-0.5,0.3-0.7S11.7,1,12,1s0.5,0.1,0.7,0.3S13,1.7,13,2v2c0,0.3-0.1,0.5-0.3,0.7S12.3,5,12,5z M12,23
	c-0.3,0-0.5-0.1-0.7-0.3C11.1,22.5,11,22.3,11,22v-2c0-0.3,0.1-0.5,0.3-0.7c0.2-0.2,0.4-0.3,0.7-0.3s0.5,0.1,0.7,0.3
	c0.2,0.2,0.3,0.4,0.3,0.7v2c0,0.3-0.1,0.5-0.3,0.7C12.5,22.9,12.3,23,12,23z M5.7,7L4.6,6C4.4,5.8,4.3,5.6,4.3,5.3s0.1-0.5,0.3-0.7
	C4.8,4.4,5,4.3,5.3,4.3S5.8,4.4,6,4.6l1.1,1.1c0.2,0.2,0.3,0.4,0.3,0.7c0,0.3-0.1,0.5-0.3,0.7C6.9,7.2,6.6,7.3,6.4,7.3
	S5.8,7.2,5.7,7z M18,19.4l-1-1.1c-0.2-0.2-0.3-0.4-0.3-0.7c0-0.3,0.1-0.5,0.3-0.7c0.2-0.2,0.4-0.3,0.7-0.3s0.5,0.1,0.7,0.3l1.1,1
	c0.2,0.2,0.3,0.4,0.3,0.7c0,0.3-0.1,0.5-0.3,0.7c-0.2,0.2-0.4,0.3-0.7,0.3S18.2,19.6,18,19.4z M17,7c-0.2-0.2-0.3-0.4-0.3-0.7
	s0.1-0.5,0.3-0.7l1-1.1c0.2-0.2,0.4-0.3,0.7-0.3c0.3,0,0.5,0.1,0.7,0.3c0.2,0.2,0.3,0.4,0.3,0.7S19.6,5.8,19.4,6L18.4,7
	c-0.2,0.2-0.4,0.3-0.7,0.3C17.4,7.3,17.1,7.2,17,7z M4.6,19.4c-0.2-0.2-0.3-0.4-0.3-0.7c0-0.3,0.1-0.5,0.3-0.7l1.1-1
	c0.2-0.2,0.4-0.3,0.7-0.3s0.5,0.1,0.7,0.3c0.2,0.2,0.3,0.4,0.3,0.7c0,0.3-0.1,0.5-0.3,0.7L6,19.4c-0.2,0.2-0.4,0.3-0.7,0.3
	S4.8,19.6,4.6,19.4z"/>
</svg>
