<?xml version="1.0" encoding="utf-8"?>
<!-- Generator: Adobe Illustrator 26.0.1, SVG Export Plug-In . SVG Version: 6.00 Build 0)  -->
<svg version="1.1" id="Слой_1" xmlns="http://www.w3.org/2000/svg" xmlns:xlink="http://www.w3.org/1999/xlink" x="0px" y="0px"
	 viewBox="0 0 24 24" style="enable-background:new 0 0 24 24;" xml:space="preserve">
<style type="text/css">
	.st0{fill:#FFFFFF;}
</style>
<path class="st0" d="M9,21H5c-0.5,0-1-0.2-1.4-0.6S3,19.5,3,19v-7c0-1.2,0.2-2.4,0.7-3.5s1.1-2,1.9-2.9s1.8-1.5,2.8-1.9S10.8,3,12,3
	s2.4,0.2,3.5,0.7s2,1.1,2.9,1.9c0.8,0.8,1.4,1.8,1.9,2.9S21,10.8,21,12v7c0,0.5-0.2,1-0.6,1.4S19.6,21,19,21h-4v-8h4v-1
	c0-1.9-0.7-3.6-2-5s-3-2-5-2S8.4,5.7,7,7s-2,3-2,5v1h4V21z M7,15H5v4h2V15z M17,15v4h2v-4H17z M7,15H5H7z M17,15h2H17z"/>
</svg>
